# xmcd CD database file
#
# Track frame offsets:
#	150
#	13650
#	27881
#	40893
#	54172
#	67591
#	78815
#	91810
#	103888
#	114889
#	128612
#	141624
#	156092
#	169414
#	183024
#	197238
#
# Disc length: 2831 seconds
#
# Revision: 0
# Processed by: cddbd v1.5.2PL0 Copyright (c) Steve Scherf et al.
# Submitted via: CDex 1.51
#
DISCID=c40b0d10
DTITLE=Various Artist - Jazz - The Essential Collection disc 13
DYEAR=1900
DGENRE=Jazz
TTITLE0=Gene Krupa and His Orchestra (feat. Roy Eldridge) - Knock Me A Kiss
TTITLE1=Billie Holiday - God Bless The Child
TTITLE2=Slim and Slam - A Tip On The Numbers
TTITLE3=Julia Lee and Her Boyfriends - I Didn't Like It The First Time (The Spinach Song)
TTITLE4=Harry James and His Orchestra - Back Beat Boogie
TTITLE5=Lena Horne - Deed I Do
TTITLE6=Claude Thornhill and His Orchestra - Sleepy Serenade
TTITLE7=Nat 'King' Cole Trio - Put 'Em In A Box, Tie 'Em With A Ribbon
TTITLE8=Nellie Lutcher - The Song Is Ended
TTITLE9=Benny Carter and His Orchestra - Sleep
TTITLE10=Woody Herman and His Orchestra - Get Your Boots Laced Papa (Part 1)
TTITLE11=George Shearing Quintet - September In The Rain
TTITLE12=Ella Fitzgerald - Once Too Often
TTITLE13=Peggy Lee (feat. Art Lund) - Winter Weather
TTITLE14=Lionel Hampton and His Orchestra - Flying Home
TTITLE15=Duke Ellington and His Famous Orchestra - Sepia Panorama
EXTD=
EXTT0=
EXTT1=
EXTT2=
EXTT3=
EXTT4=
EXTT5=
EXTT6=
EXTT7=
EXTT8=
EXTT9=
EXTT10=
EXTT11=
EXTT12=
EXTT13=
EXTT14=
EXTT15=
PLAYORDER=
